<?xml version="1.0" encoding="UTF-8" standalone="no"?>
<!-- Created with Inkscape (http://www.inkscape.org/) -->

<svg
   xmlns:dc="http://purl.org/dc/elements/1.1/"
   xmlns:cc="http://creativecommons.org/ns#"
   xmlns:rdf="http://www.w3.org/1999/02/22-rdf-syntax-ns#"
   xmlns:svg="http://www.w3.org/2000/svg"
   xmlns="http://www.w3.org/2000/svg"
   xmlns:xlink="http://www.w3.org/1999/xlink"
   xmlns:sodipodi="http://sodipodi.sourceforge.net/DTD/sodipodi-0.dtd"
   xmlns:inkscape="http://www.inkscape.org/namespaces/inkscape"
   width="900"
   height="900"
   id="svg2"
   version="1.1"
   inkscape:version="0.47 r22583"
   inkscape:export-filename="/media/localstore/Tic-Tac-Toe/resources/board.png"
   inkscape:export-xdpi="90"
   inkscape:export-ydpi="90"
   sodipodi:docname="board_and_pieces.svg">
  <defs
     id="defs4">
    <inkscape:perspective
       sodipodi:type="inkscape:persp3d"
       inkscape:vp_x="0 : 526.18109 : 1"
       inkscape:vp_y="0 : 1000 : 0"
       inkscape:vp_z="744.09448 : 526.18109 : 1"
       inkscape:persp3d-origin="372.04724 : 350.78739 : 1"
       id="perspective10" />
    <filter
       inkscape:collect="always"
       id="filter3670"
       x="-0.252"
       width="1.504"
       y="-0.252"
       height="1.504">
      <feGaussianBlur
         inkscape:collect="always"
         stdDeviation="90.58038"
         id="feGaussianBlur3672" />
    </filter>
    <inkscape:perspective
       id="perspective3682"
       inkscape:persp3d-origin="0.5 : 0.33333333 : 1"
       inkscape:vp_z="1 : 0.5 : 1"
       inkscape:vp_y="0 : 1000 : 0"
       inkscape:vp_x="0 : 0.5 : 1"
       sodipodi:type="inkscape:persp3d" />
    <inkscape:perspective
       id="perspective3708"
       inkscape:persp3d-origin="0.5 : 0.33333333 : 1"
       inkscape:vp_z="1 : 0.5 : 1"
       inkscape:vp_y="0 : 1000 : 0"
       inkscape:vp_x="0 : 0.5 : 1"
       sodipodi:type="inkscape:persp3d" />
    <inkscape:perspective
       id="perspective3733"
       inkscape:persp3d-origin="0.5 : 0.33333333 : 1"
       inkscape:vp_z="1 : 0.5 : 1"
       inkscape:vp_y="0 : 1000 : 0"
       inkscape:vp_x="0 : 0.5 : 1"
       sodipodi:type="inkscape:persp3d" />
    <inkscape:perspective
       id="perspective3758"
       inkscape:persp3d-origin="0.5 : 0.33333333 : 1"
       inkscape:vp_z="1 : 0.5 : 1"
       inkscape:vp_y="0 : 1000 : 0"
       inkscape:vp_x="0 : 0.5 : 1"
       sodipodi:type="inkscape:persp3d" />
    <inkscape:perspective
       id="perspective3783"
       inkscape:persp3d-origin="0.5 : 0.33333333 : 1"
       inkscape:vp_z="1 : 0.5 : 1"
       inkscape:vp_y="0 : 1000 : 0"
       inkscape:vp_x="0 : 0.5 : 1"
       sodipodi:type="inkscape:persp3d" />
    <inkscape:perspective
       id="perspective3808"
       inkscape:persp3d-origin="0.5 : 0.33333333 : 1"
       inkscape:vp_z="1 : 0.5 : 1"
       inkscape:vp_y="0 : 1000 : 0"
       inkscape:vp_x="0 : 0.5 : 1"
       sodipodi:type="inkscape:persp3d" />
    <inkscape:perspective
       id="perspective3872"
       inkscape:persp3d-origin="0.5 : 0.33333333 : 1"
       inkscape:vp_z="1 : 0.5 : 1"
       inkscape:vp_y="0 : 1000 : 0"
       inkscape:vp_x="0 : 0.5 : 1"
       sodipodi:type="inkscape:persp3d" />
    <inkscape:perspective
       id="perspective2853"
       inkscape:persp3d-origin="0.5 : 0.33333333 : 1"
       inkscape:vp_z="1 : 0.5 : 1"
       inkscape:vp_y="0 : 1000 : 0"
       inkscape:vp_x="0 : 0.5 : 1"
       sodipodi:type="inkscape:persp3d" />
  </defs>
  <sodipodi:namedview
     id="base"
     pagecolor="#ffffff"
     bordercolor="#666666"
     borderopacity="1.0"
     inkscape:pageopacity="0.0"
     inkscape:pageshadow="2"
     inkscape:zoom="0.37722222"
     inkscape:cx="-521.81375"
     inkscape:cy="208.39152"
     inkscape:document-units="px"
     inkscape:current-layer="layer1"
     showgrid="false"
     inkscape:window-width="1920"
     inkscape:window-height="1005"
     inkscape:window-x="1680"
     inkscape:window-y="24"
     inkscape:window-maximized="1" />
  <metadata
     id="metadata7">
    <rdf:RDF>
      <cc:Work
         rdf:about="">
        <dc:format>image/svg+xml</dc:format>
        <dc:type
           rdf:resource="http://purl.org/dc/dcmitype/StillImage" />
        <dc:title></dc:title>
      </cc:Work>
    </rdf:RDF>
  </metadata>
  <g
     inkscape:label="Layer 1"
     inkscape:groupmode="layer"
     id="layer1"
     transform="translate(0,-152.36218)">
    <rect
       style="fill:#16502d;fill-opacity:0.81818183;stroke:#e3e2db;stroke-width:10;stroke-miterlimit:4;stroke-opacity:1;stroke-dasharray:none"
       id="rect3594"
       width="300"
       height="300"
       x="-673.16809"
       y="480.30722"
       inkscape:tile-cx="152.65096"
       inkscape:tile-cy="148.67452"
       inkscape:tile-w="300"
       inkscape:tile-h="300"
       inkscape:tile-x0="2.6509573"
       inkscape:tile-y0="-1.3254782"
       inkscape:export-filename="/media/localstore/Tic-Tac-Toe/resources/grid-box.png"
       inkscape:export-xdpi="89.129997"
       inkscape:export-ydpi="89.129997" />
    <use
       x="0"
       y="0"
       inkscape:tiled-clone-of="#rect3594"
       xlink:href="#rect3594"
       transform="translate(675.8191,-29.270509)"
       id="use3598"
       width="900"
       height="900"
       inkscape:export-filename="/media/localstore/Tic-Tac-Toe/resources/board.png"
       inkscape:export-xdpi="89.010002"
       inkscape:export-ydpi="89.010002" />
    <use
       x="0"
       y="0"
       inkscape:tiled-clone-of="#rect3594"
       xlink:href="#rect3594"
       id="use3596"
       transform="translate(675.8191,-329.27051)"
       width="900"
       height="900"
       inkscape:export-filename="/media/localstore/Tic-Tac-Toe/resources/board.png"
       inkscape:export-xdpi="89.010002"
       inkscape:export-ydpi="89.010002" />
    <use
       x="0"
       y="0"
       inkscape:tiled-clone-of="#rect3594"
       xlink:href="#rect3594"
       transform="translate(675.8191,270.72949)"
       id="use3600"
       width="900"
       height="900"
       inkscape:export-filename="/media/localstore/Tic-Tac-Toe/resources/board.png"
       inkscape:export-xdpi="89.010002"
       inkscape:export-ydpi="89.010002" />
    <use
       x="0"
       y="0"
       inkscape:tiled-clone-of="#rect3594"
       xlink:href="#rect3594"
       transform="translate(975.81909,-329.27051)"
       id="use3602"
       width="900"
       height="900"
       inkscape:export-filename="/media/localstore/Tic-Tac-Toe/resources/board.png"
       inkscape:export-xdpi="89.010002"
       inkscape:export-ydpi="89.010002" />
    <use
       x="0"
       y="0"
       inkscape:tiled-clone-of="#rect3594"
       xlink:href="#rect3594"
       transform="translate(975.81909,-29.270509)"
       id="use3604"
       width="900"
       height="900"
       inkscape:export-filename="/media/localstore/Tic-Tac-Toe/resources/board.png"
       inkscape:export-xdpi="89.010002"
       inkscape:export-ydpi="89.010002" />
    <use
       x="0"
       y="0"
       inkscape:tiled-clone-of="#rect3594"
       xlink:href="#rect3594"
       transform="translate(975.81909,270.72949)"
       id="use3606"
       width="900"
       height="900"
       inkscape:export-filename="/media/localstore/Tic-Tac-Toe/resources/board.png"
       inkscape:export-xdpi="89.010002"
       inkscape:export-ydpi="89.010002" />
    <use
       x="0"
       y="0"
       inkscape:tiled-clone-of="#rect3594"
       xlink:href="#rect3594"
       transform="translate(1275.8191,-329.27051)"
       id="use3608"
       width="900"
       height="900"
       inkscape:export-filename="/media/localstore/Tic-Tac-Toe/resources/board.png"
       inkscape:export-xdpi="89.010002"
       inkscape:export-ydpi="89.010002" />
    <use
       x="0"
       y="0"
       inkscape:tiled-clone-of="#rect3594"
       xlink:href="#rect3594"
       transform="translate(1275.8191,-29.270509)"
       id="use3610"
       width="900"
       height="900"
       inkscape:export-filename="/media/localstore/Tic-Tac-Toe/resources/board.png"
       inkscape:export-xdpi="89.010002"
       inkscape:export-ydpi="89.010002" />
    <use
       x="0"
       y="0"
       inkscape:tiled-clone-of="#rect3594"
       xlink:href="#rect3594"
       transform="translate(1275.8191,270.72949)"
       id="use3612"
       width="900"
       height="900"
       inkscape:export-xdpi="89.010002"
       inkscape:export-ydpi="89.010002"
       inkscape:export-filename="/media/localstore/Tic-Tac-Toe/resources/board.png" />
    <path
       sodipodi:type="arc"
       style="opacity:0.55;fill:#5fef00;fill-opacity:1;stroke:none;filter:url(#filter3670)"
       id="path2816"
       sodipodi:cx="437.39606"
       sodipodi:cy="438.36029"
       sodipodi:rx="431.33514"
       sodipodi:ry="431.33514"
       d="m 868.7312,438.36029 c 0,238.21982 -193.11532,431.33514 -431.33514,431.33514 -238.21982,0 -431.3351469,-193.11532 -431.3351469,-431.33514 0,-238.21982 193.1153269,-431.3351435 431.3351469,-431.3351435 238.21982,0 431.33514,193.1153235 431.33514,431.3351435 z"
       transform="matrix(0.28044954,0,0,0.28044954,1181.6487,897.39096)" />
    <rect
       style="fill:#16502d;fill-opacity:0;stroke:none"
       id="rect3594-4"
       width="300"
       height="300"
       x="1154.3162"
       y="870.32892"
       inkscape:tile-cx="152.65096"
       inkscape:tile-cy="148.67452"
       inkscape:tile-w="300"
       inkscape:tile-h="300"
       inkscape:tile-x0="2.6509573"
       inkscape:tile-y0="-1.3254782"
       inkscape:export-filename="/home/slogger/o-poof.png"
       inkscape:export-xdpi="90"
       inkscape:export-ydpi="90" />
    <g
       transform="scale(0.97522081,1.0254088)"
       style="font-size:508.04644775px;font-style:normal;font-variant:normal;font-weight:bold;font-stretch:normal;text-align:start;line-height:125%;writing-mode:lr-tb;text-anchor:start;fill:#afc6e9;fill-opacity:1;stroke:#3737c8;stroke-width:22.91666603;stroke-miterlimit:4;stroke-opacity:1;font-family:Berlin Sans FB;-inkscape-font-specification:Berlin Sans FB Bold"
       id="text3696-8">
      <path
         d="m 444.47502,1524.4144 c -2.7e-4,5.7883 -3.72131,8.6824 -11.16313,8.6824 l -82.35909,0 c -5.12694,0 -9.17874,-2.398 -12.15541,-7.194 -1.98472,-3.3076 -6.03652,-8.9305 -12.15541,-16.8687 -7.11147,-9.0959 -11.32865,-13.6438 -12.65155,-13.6439 -3.47311,10e-5 -11.74208,10.1709 -24.80695,30.5126 -3.14233,4.796 -7.27682,7.194 -12.40348,7.194 l -79.63033,0 c -7.4421,0 -11.16314,-2.8941 -11.16313,-8.6824 l 0,-60.529 c -1e-5,-4.6306 7.52476,-13.9745 22.57433,-28.0319 15.04951,-14.2225 22.57428,-22.9049 22.57433,-26.0473 -5e-5,-2.4805 -7.52482,-10.8322 -22.57433,-25.055 -15.04957,-14.2225 -22.57434,-23.7318 -22.57433,-28.528 l 0,-60.2809 c -1e-5,-5.788 3.72103,-8.6822 11.16313,-8.6824 l 79.63033,0 c 5.12666,2e-4 9.26115,2.3155 12.40348,6.9459 13.06487,20.3419 21.33384,30.5128 24.80695,30.5126 1.3229,2e-4 5.54008,-4.5478 12.65155,-13.6438 6.11889,-7.7727 10.17069,-13.3956 12.15541,-16.8688 2.97667,-4.6304 7.02847,-6.9457 12.15541,-6.9459 l 82.35909,0 c 7.44182,2e-4 11.16286,2.8944 11.16313,8.6824 l 0,60.2809 c -2.7e-4,4.7962 -7.60773,14.3882 -22.8224,28.7761 -15.21516,14.3881 -22.90531,22.9879 -23.07047,25.7992 1.32281,3.3077 9.67448,11.9902 25.05502,26.0473 13.89164,12.8997 20.83758,21.9129 20.83785,27.0396 l 0,60.529"
         style="fill:#afc6e9;stroke:#3737c8;font-family:Berlin Sans FB;-inkscape-font-specification:Berlin Sans FB Bold"
         id="path3908" />
    </g>
    <g
       style="font-size:361.08361816px;font-style:normal;font-variant:normal;font-weight:normal;font-stretch:normal;text-align:start;line-height:125%;writing-mode:lr-tb;text-anchor:start;fill:#c83737;fill-opacity:1;stroke:none;font-family:Cloooud;-inkscape-font-specification:Cloooud"
       id="text3696-8-7">
      <path
         d="m 1434.1257,1007.6909 c -0.9631,18.7765 -8.7866,31.5348 -23.4704,38.2749 -0.9631,0.4815 -1.2039,1.3241 -0.7222,2.5276 6.0178,8.9068 9.0269,18.4153 9.0271,28.5256 -2e-4,14.4434 -6.4997,27.4424 -19.4985,38.997 -7.7033,6.7403 -17.4526,10.1104 -29.2478,10.1104 -5.2961,0 -10.592,-0.7222 -15.8877,-2.1665 -1.2037,-0.2407 -2.0463,0.1203 -2.5275,1.0832 -9.8698,16.6099 -25.3964,25.2759 -46.5798,25.998 -21.4244,0.7222 -36.951,-5.657 -46.5798,-19.1374 -0.7223,-0.9629 -1.5648,-1.0832 -2.5276,-0.3611 -3.1295,2.4072 -8.7864,3.4905 -16.9709,3.2498 -16.6099,0 -27.3221,-6.981 -32.1365,-20.9429 -0.9629,-3.1293 -1.324,-7.5827 -1.0832,-13.3601 -10e-5,-4.8144 -0.3611,-7.2216 -1.0833,-7.2217 -20.7021,-5.5365 -31.2939,-16.4894 -31.7753,-32.8586 -0.2408,-14.4432 6.1384,-25.3961 19.1374,-32.8586 0.9629,-0.722 1.0832,-1.4442 0.3611,-2.1665 -12.999,-11.5545 -19.4985,-25.2757 -19.4985,-41.1635 0,-8.90657 2.2868,-17.81329 6.8606,-26.72019 10.351,-20.22048 28.8866,-29.00684 55.6068,-26.35911 1.2036,0.24094 1.9257,-0.36087 2.1665,-1.80541 3.6108,-21.66479 16.2487,-34.78414 37.9138,-39.35812 4.5736,-0.96263 8.9066,-1.44408 12.999,-1.44433 17.0912,2.5e-4 30.3309,6.49975 39.7192,19.49851 0.722,1.20385 1.5646,1.44457 2.5276,0.72217 5.2957,-2.88843 10.9527,-4.33277 16.9709,-4.333 8.1844,2.3e-4 16.0079,2.8889 23.4705,8.666 12.2766,9.14767 17.3318,20.46162 15.1655,33.94186 -0.241,1.20381 0.3609,1.92598 1.8054,2.16651 10.3508,1.44452 19.4983,5.29608 27.4424,11.55467 13.4802,10.59196 19.6186,26.2389 18.4152,46.94084 m -28.8867,-20.22065 c -4.5739,-17.09112 -18.4154,-25.63676 -41.5246,-25.63694 -3.8517,1.8e-4 -7.4626,0.2409 -10.8325,0.72217 -0.4816,-0.24054 -0.8427,-0.72199 -1.0832,-1.44433 3.1292,-5.53643 9.1472,-9.62871 18.0541,-12.27685 1.2035,-0.48125 1.6849,-1.32378 1.4444,-2.52758 -1.926,-15.88747 -10.9531,-23.8313 -27.0813,-23.83152 -7.7033,2.2e-4 -11.3141,1.20383 -10.8325,3.61083 0.4813,2.88889 0.722,5.65719 0.7222,8.30493 -2e-4,6.98115 -1.6853,12.27704 -5.0552,15.88768 -0.4816,1.9e-4 -0.9631,-0.24053 -1.4444,-0.72217 0.2406,-1.92559 0.361,-3.97172 0.3611,-6.13842 -10e-5,-21.90552 -12.2769,-33.94163 -36.8305,-36.10836 -21.4244,-2.16627 -33.7012,7.2219 -36.8305,28.16452 -0.2408,1.20382 0.2406,2.1667 1.4443,2.88867 8.4252,3.85176 14.0822,9.86981 16.9709,18.05418 -0.2408,0.48163 -0.6019,0.72235 -1.0832,0.72217 -6.981,-6.2586 -16.7303,-9.38798 -29.2478,-9.38818 -23.8315,2e-4 -38.3952,11.31414 -43.6911,33.94186 -0.9629,4.09244 -1.4444,8.06435 -1.4443,11.91576 -10e-5,21.66513 12.3971,36.22883 37.1916,43.69113 0.2406,10e-5 0.361,0.2408 0.3611,0.7222 -1e-4,0.4815 -0.1205,0.7222 -0.3611,0.7221 -3.8516,0.963 -9.99,0.3612 -18.4153,-1.8054 -0.9629,-0.2406 -1.9258,-0.1203 -2.8887,0.3611 -15.1655,5.0553 -21.9057,13.3602 -20.2206,24.9148 2.1664,14.6841 12.0361,22.0261 29.6088,22.0261 5.2959,0 10.7121,-0.6018 16.2488,-1.8055 0.4814,0.2408 0.7221,0.7223 0.7221,1.4444 -1.9258,2.1665 -5.7773,4.333 -11.5546,6.4995 -4.8145,1.9258 -7.2217,3.6109 -7.2217,5.0552 -0.2408,10.5918 3.9719,17.5727 12.6379,20.9428 6.4995,2.4072 11.675,2.7683 15.5266,1.0833 1.4443,-0.4815 2.0461,-1.4444 1.8054,-2.8887 -0.2408,-3.1294 -0.3611,-6.1384 -0.361,-9.0271 -10e-5,-10.5917 2.1664,-18.8967 6.4995,-24.9148 0.722,-1.2035 1.2035,-1.0832 1.4443,0.3611 1.2035,10.1104 4.2126,19.0171 9.0271,26.7202 8.6659,12.999 21.4242,18.8967 38.2748,17.6931 14.9247,-1.2036 25.5165,-9.1474 31.7754,-23.8315 3.6107,-8.666 5.2957,-18.2949 5.0552,-28.8867 0.4813,-0.4814 1.0831,-0.7221 1.8054,-0.7222 7.7029,5.7774 11.3138,15.5267 10.8325,29.2478 -2e-4,1.4444 0.6016,2.1665 1.8054,2.1665 19.4983,1.2036 32.0159,-7.342 37.5527,-25.6369 0.9627,-3.6108 1.4441,-7.2216 1.4444,-10.8326 -3e-4,-13.9618 -7.2219,-25.9979 -21.6651,-36.1083 -1.2038,-0.7221 -1.0834,-1.2035 0.3611,-1.4444 5.055,-0.2406 10.5916,0.602 16.6099,2.5276 1.2034,0.4816 2.407,0.3612 3.6108,-0.361 8.6658,-6.7402 12.9988,-16.2487 12.999,-28.5257 -2e-4,-5.05498 -0.8427,-10.23051 -2.5276,-15.52655 m -57.4123,34.30295 c 1.4442,0.963 1.3238,1.4444 -0.3611,1.4443 -12.277,0.2409 -20.1004,4.8146 -23.4704,13.7212 -0.4816,1.2037 0.2406,2.1666 2.1665,2.8887 5.5365,2.8887 9.388,7.7032 11.5547,14.4433 -0.2409,0.4816 -0.7223,0.8426 -1.4443,1.0833 -7.7033,-7.7031 -19.3783,-10.9528 -35.0252,-9.7493 -16.1285,0.963 -28.4053,7.2218 -36.8305,18.7764 -0.7222,0 -1.2037,-0.2407 -1.4443,-0.7222 1.2035,-7.9438 5.4161,-14.684 12.6379,-20.2207 2.1664,-1.9257 2.6479,-4.0922 1.4443,-6.4995 -0.7222,-0.9628 -1.8055,-1.2035 -3.2497,-0.7222 -3.8517,1.9259 -7.5829,2.5277 -11.1936,1.8055 -1.6851,-0.2407 -1.8055,-0.7221 -0.3611,-1.4444 7.4623,-3.37 13.6007,-8.5455 18.4153,-15.5266 4.8143,-6.9808 7.2215,-14.5635 7.2217,-22.74824 -2e-4,-8.18441 -2.1667,-16.36897 -6.4996,-24.55369 -1e-4,-0.48127 0.361,-0.84236 1.0833,-1.08325 5.2958,2.88884 9.1473,8.18472 11.5547,15.88768 0.9627,2.88882 4.5736,4.21279 10.8325,3.97192 8.9066,-0.24057 14.9246,-4.09213 18.0542,-11.55468 0.2405,-0.24056 0.4813,-0.36092 0.7221,-0.36108 0.4813,1.6e-4 0.7221,0.24088 0.7222,0.72217 0.9627,6.25893 -0.7223,11.19374 -5.0552,14.80443 -1.2037,0.72231 -1.8055,1.80556 -1.8054,3.24975 -0.963,8.18469 1.6849,15.04529 7.9438,20.58179 0.9628,0.7223 2.1664,0.8426 3.6109,0.3611 7.7029,-2.1664 13.9617,-1.685 18.7763,1.4443"
         style="fill:#c83737;font-family:Cloooud;-inkscape-font-specification:Cloooud"
         id="path3918" />
    </g>
    <path
       transform="matrix(0.25155438,0,0,0.25155438,1177.4167,411.43783)"
       d="m 868.7312,438.36029 c 0,238.21982 -193.11532,431.33514 -431.33514,431.33514 -238.21982,0 -431.3351469,-193.11532 -431.3351469,-431.33514 0,-238.21982 193.1153269,-431.3351435 431.3351469,-431.3351435 238.21982,0 431.33514,193.1153235 431.33514,431.3351435 z"
       sodipodi:ry="431.33514"
       sodipodi:rx="431.33514"
       sodipodi:cy="438.36029"
       sodipodi:cx="437.39606"
       id="path3858"
       style="opacity:0.55;fill:#5fef00;fill-opacity:1;stroke:none;filter:url(#filter3670)"
       sodipodi:type="arc" />
    <g
       style="font-size:346.94476318px;font-style:normal;font-variant:normal;font-weight:normal;font-stretch:normal;text-align:start;line-height:125%;writing-mode:lr-tb;text-anchor:start;fill:#3737c8;fill-opacity:1;stroke:none;font-family:Cloooud;-inkscape-font-specification:Cloooud"
       id="text3696-8-7-9">
      <path
         d="m 1415.8152,596.82283 c 1.3875,11.10226 -2.082,20.8167 -10.4084,29.14336 -8.5582,9.02056 -19.0822,12.9526 -31.5719,11.79612 -17.1162,-1.38778 -29.0279,-9.94574 -35.7354,-25.67391 -0.4627,-1.15646 -1.3879,-1.7347 -2.7755,-1.73472 -2.0819,0.23132 -4.3948,0.34697 -6.9389,0.34694 -21.9733,3e-5 -36.8919,-9.13618 -44.7559,-27.40864 -0.4627,-1.38772 -0.9253,-1.38772 -1.3878,0 -2.313,10.63969 -8.3268,18.96635 -18.0411,24.98003 -8.7894,5.31984 -18.5038,7.40151 -29.1434,6.245 -1.1565,-0.23127 -1.8504,0.23132 -2.0816,1.38778 -3.0069,14.34039 -13.6466,22.66706 -31.9189,24.98002 -11.5649,1.61907 -21.8576,-1.38778 -30.8781,-9.02056 -8.7893,-7.63277 -13.1839,-16.76898 -13.1839,-27.40864 0,-8.78922 3.3538,-17.00024 10.0614,-24.63307 6.9389,-7.63272 15.4968,-11.91171 25.6739,-12.83696 1.1564,7e-5 1.7347,-0.69382 1.7347,-2.08167 0.2313,-19.66011 7.2858,-33.19094 21.1636,-40.59254 1.1565,-0.46248 1.1565,-1.04072 0,-1.73472 -18.5037,-9.71433 -27.7556,-22.89822 -27.7555,-39.5517 -10e-5,-3.70059 0.5782,-7.40133 1.7347,-11.10224 0.2313,-1.15631 -0.2313,-1.96585 -1.3878,-2.42861 -12.9526,-3.46928 -20.8167,-12.14289 -23.5922,-26.02086 -0.6939,-3.00665 -1.0409,-5.89786 -1.0409,-8.67361 0,-9.71425 3.2382,-17.80962 9.7145,-24.28614 6.7076,-6.47607 15.1499,-9.71422 25.3269,-9.71445 20.5854,2.3e-4 32.6128,8.21125 36.0823,24.63308 0.2312,1.15669 2.5442,1.73493 6.9389,1.73472 6.0136,0.23151 9.5987,0.4628 10.7553,0.69389 8.0953,1.61928 15.3811,5.20437 21.8575,10.75529 4.6258,3.93223 8.0953,8.21121 10.4083,12.83695 0.6938,1.15667 1.2721,1.27232 1.7348,0.34695 8.5578,-12.02722 20.8165,-17.11574 36.7761,-15.26557 1.1563,0.23149 1.8502,-0.34675 2.0817,-1.73472 2.3128,-19.65999 13.1837,-30.9935 32.6128,-34.00059 2.3128,-0.46236 4.6257,-0.69366 6.9389,-0.69389 11.102,2.3e-4 20.1226,3.93227 27.0617,11.79612 7.1699,7.8643 10.755,17.0005 10.7553,27.40864 -3e-4,16.88482 -8.4426,29.02788 -25.327,36.4292 -1.1567,0.46275 -1.5036,1.27229 -1.0408,2.42861 1.3875,4.16349 2.0814,8.44247 2.0816,12.83696 -2e-4,11.10236 -4.5105,20.58551 -13.5308,28.44947 -0.9254,0.694 -0.8098,1.27224 0.3469,1.73472 10.8708,5.55123 16.3062,14.91873 16.3064,28.10253 -2e-4,2.31305 -0.1158,4.74166 -0.3469,7.28584 -0.2315,1.15656 1.0406,2.19739 3.8164,3.1225 18.2722,5.55119 28.5649,17.92554 30.8781,37.12309 m -21.1637,-10.75529 c -4.3948,-8.78921 -10.7555,-13.53078 -19.0819,-14.22473 -1.1567,6e-5 -2.0819,0.5783 -2.7756,1.73472 -2.7757,4.62599 -5.7826,7.51719 -9.0205,8.67362 -0.4628,-0.23124 -0.8098,-0.69384 -1.0409,-1.38778 1.6189,-5.78235 2.4284,-11.44911 2.4286,-17.00029 -2e-4,-6.01363 -1.1567,-11.2178 -3.4694,-15.61252 -5.32,-10.17695 -13.4154,-15.38111 -24.2861,-15.61251 -1.1567,10e-5 -2.0819,0.57834 -2.7756,1.73472 -2.7757,4.85733 -5.6669,7.74853 -8.6736,8.67362 -0.4628,-0.2312 -0.8097,-0.57815 -1.0409,-1.04083 3.0067,-4.85713 4.5102,-10.75519 4.5103,-17.69419 -10e-5,-4.39451 -0.5784,-8.78914 -1.7347,-13.1839 0.2311,-0.46246 0.5781,-0.80941 1.0408,-1.04083 1.1563,0.92531 2.7754,3.00698 4.8573,6.245 2.3128,3.00698 3.9318,4.27911 4.8572,3.8164 8.0952,-2.54415 14.8028,-9.48303 20.1228,-20.81669 2.3127,-5.31968 3.4692,-10.87079 3.4694,-16.65335 -2e-4,-7.86392 -1.9662,-15.38105 -5.898,-22.55141 -2e-4,-0.46241 0.2311,-0.80936 0.6939,-1.04083 0.6937,0.23147 2.3127,1.15666 4.8572,2.77556 1.8502,0.92536 3.2379,1.15665 4.1633,0.69389 9.2517,-4.16316 14.9184,-10.63946 17.0003,-19.42891 0.4624,-1.85018 0.6937,-3.8162 0.6939,-5.89806 -2e-4,-5.78221 -1.9662,-10.52378 -5.8981,-14.22474 -3.7009,-3.70052 -8.3268,-5.55089 -13.8777,-5.55111 -2.5445,2.2e-4 -4.9731,0.34716 -7.2859,1.04083 -8.7894,2.77577 -13.7623,10.17726 -14.9186,22.20447 -0.2315,1.15667 0.2311,2.19751 1.3878,3.1225 2.7753,2.08186 4.7414,4.62612 5.898,7.63278 -2e-4,0.46278 -0.3471,0.80973 -1.0408,1.04084 -6.9391,-3.46926 -14.6875,-4.62574 -23.2453,-3.46945 -10.8711,1.61926 -19.6604,8.09556 -26.3678,19.42891 -0.4627,1.15665 -0.1158,1.96618 1.0408,2.42861 13.6464,5.31998 22.0887,14.34053 25.327,27.06169 -0.2315,0.46273 -0.5784,0.69403 -1.0408,0.69389 -9.4833,-12.48986 -21.6264,-19.5444 -36.4292,-21.16363 -11.7963,-1.15632 -22.2046,1.50359 -31.2251,7.97973 -0.4627,1.5e-4 -0.8096,-0.23115 -1.0408,-0.69389 2.7755,-6.70744 9.3674,-12.1429 19.7758,-16.3064 1.1564,-0.46243 1.5034,-1.27196 1.0409,-2.42862 -5.5512,-17.34705 -19.0821,-24.74853 -40.5926,-22.20446 -1.1565,1.9e-4 -1.8504,0.69408 -2.0816,2.08167 -0.9253,3.46963 -2.66,6.70778 -5.2042,9.71445 -0.4627,1.8e-4 -0.8096,-0.23111 -1.0408,-0.69389 0.2312,-1.3876 0.3469,-3.12232 0.3469,-5.20417 0,-11.56463 -3.2382,-20.00694 -9.7144,-25.32697 -3.7008,-3.23793 -8.5581,-4.85701 -14.5717,-4.85722 -5.5512,2.1e-4 -10.4084,1.61929 -14.5717,4.85722 -4.1634,3.23836 -6.245,7.86429 -6.245,13.87779 0,1.61927 0.1156,3.23835 0.3469,4.85723 2.5443,14.80315 14.3404,21.27945 35.3884,19.42891 0.2312,0.23147 0.3469,0.69406 0.347,1.38778 -3.7008,1.15665 -7.5172,3.23832 -11.4492,6.245 -0.4627,2.54443 -0.694,4.97304 -0.6939,7.28584 -10e-5,16.1909 7.6327,27.75571 22.8983,34.69448 1.1565,0.46271 1.966,0.11577 2.4287,-1.04084 4.1632,-9.94561 9.5987,-16.42191 16.3064,-19.4289 0.4625,0.23144 0.8094,0.57838 1.0408,1.04083 -5.7825,10.63977 -8.6737,21.97329 -8.6736,34.00059 -10e-5,12.02751 1.619,20.93242 4.8572,26.71474 -10e-5,0.46268 -0.347,0.80962 -1.0408,1.04084 -6.0138,-3.46936 -10.4084,-9.13612 -13.1839,-17.00029 -0.4627,-1.15639 -1.3879,-1.50333 -2.7756,-1.04084 -12.4901,4.16343 -18.2725,15.15001 -17.3472,32.95975 -10e-5,0.69396 2.0816,2.77563 6.245,6.24501 -10e-5,0.46265 -0.2314,0.92524 -0.6939,1.38778 -3.2382,-0.92513 -6.7077,-1.38772 -10.4084,-1.38778 -7.1702,6e-5 -13.2995,1.73478 -18.388,5.20417 -6.0138,4.16339 -9.4832,9.9458 -10.4084,17.34724 -0.9252,6.93892 0.6939,12.95263 4.8573,18.04113 4.3946,4.85724 10.0613,7.28585 17.0002,7.28584 5.3198,10e-6 10.524,-1.61907 15.6126,-4.85723 8.5579,-5.0885 12.8369,-13.53082 12.8369,-25.32697 0,-2.54421 -0.2313,-5.20412 -0.6939,-7.97973 0.2313,-0.23124 0.6939,-0.34689 1.3878,-0.34694 1.3877,4.39468 3.8163,8.90496 7.2858,13.53084 1.8503,0.23134 3.5851,0.34699 5.2042,0.34695 13.1838,4e-5 21.7418,-6.70756 25.6739,-20.1228 0.2312,-1.15642 -0.1157,-2.19726 -1.0408,-3.1225 -5.0886,-3.70068 -8.2111,-7.63272 -9.3675,-11.79612 0.2312,-0.46252 0.5781,-0.80947 1.0408,-1.04084 6.9388,2.54434 15.4968,3.93211 25.6739,4.16334 10.8708,7e-5 20.8166,-2.89113 29.8373,-8.67362 0.4624,8e-5 0.8094,0.34702 1.0408,1.04084 -2.3131,6.01378 -6.8234,11.10229 -13.5308,15.26556 -0.9253,0.69396 -1.1566,1.73479 -0.6939,3.12251 3.9319,9.25191 10.8708,14.91867 20.8167,17.00029 4.3944,1.15652 8.6734,1.73476 12.8369,1.73472 8.5578,4e-5 16.3062,-1.96597 23.2453,-5.89806 0.4624,0.23135 0.8094,0.57829 1.0409,1.04084 -1.6193,2.08171 -3.2384,4.27902 -4.8573,6.59195 -2.3131,3.23818 -3.1227,5.31985 -2.4286,6.245 5.3196,9.48318 12.8368,14.22476 22.5514,14.22474 2.3128,2e-5 4.6257,-0.34693 6.9389,-1.04083 5.0883,-1.15647 9.2517,-3.93202 12.49,-8.32668 3.238,-4.6259 4.857,-9.48312 4.8573,-14.57168 -3e-4,-3.23811 -0.5785,-6.12931 -1.7348,-8.67362"
         style="fill:#3737c8;font-family:Cloooud;-inkscape-font-specification:Cloooud"
         id="path3915" />
    </g>
    <path
       style="fill:#ffaacc;fill-opacity:1;stroke:none"
       d="m 1282.7672,1119.223 c -10.5918,-6.4588 -17.0821,-15.3943 -20.783,-28.6126 -1.7328,-6.1891 -4.0106,-11.253 -5.0617,-11.253 -3.1868,0 -7.3445,14.9189 -7.3445,26.354 0,10.3492 -0.2925,10.767 -7.5367,10.767 -8.5547,0 -19.6854,-9.4723 -19.6854,-16.7523 0,-2.8246 3.3469,-6.1996 8.6616,-8.734 11.4336,-5.4523 11.1401,-9.7347 -0.6188,-9.0268 -17.5014,1.0537 -23.1253,-0.1423 -29.1904,-6.2075 -8.5117,-8.5116 -8.3014,-21.7947 0.4738,-29.9274 6.9247,-6.4175 8.3665,-6.7699 25.0046,-6.1112 5.7847,0.229 10.5176,-0.2096 10.5176,-0.9746 0,-0.7651 -4.1761,-3.1356 -9.2802,-5.2677 -11.1544,-4.6594 -22.491,-14.9386 -25.8204,-23.4119 -7.2372,-18.41826 1.3506,-45.95529 17.2136,-55.19586 10.6163,-6.1843 33.4311,-6.53726 44.7203,-0.69192 4.55,2.35593 8.8163,3.73997 9.4807,3.07567 2.1179,-2.11788 -4.1024,-11.39037 -10.4165,-15.52746 -8.0893,-5.30035 -7.8036,-13.81594 0.7861,-23.42954 8.9425,-10.00847 25.0638,-12.342 41.6099,-6.02299 13.4147,5.12317 20.7739,15.50478 20.7874,29.32473 0.012,12.42425 5.4207,10.96581 8.3445,-2.25025 3.7749,-17.06367 3.4128,-16.64685 13.0987,-15.07508 9.7704,1.5855 19.4354,9.16598 21.4349,16.81171 0.9456,3.61618 -1.1802,6.37922 -8.4284,10.95488 -5.3313,3.36544 -9.6932,7.0662 -9.6932,8.22387 0,1.15766 7.2384,2.68593 16.0852,3.39606 18.0101,1.44565 26.4253,5.82984 33.5183,17.46265 6.9148,11.3407 6.6502,33.39973 -0.5099,42.50233 -4.7969,6.0983 -6.461,6.6498 -16.0857,5.3305 -5.9045,-0.8093 -10.7353,-0.5975 -10.7353,0.4705 0,1.068 3.9192,5.7406 8.7094,10.3834 4.79,4.6428 9.8443,12.6566 11.2316,17.8085 5.7363,21.3033 -9.3062,44.0133 -29.1532,44.0133 -7.0293,0 -8.1109,-0.8357 -8.1109,-6.2663 0,-9.0077 -6.5651,-23.4304 -10.6653,-23.4304 -2.356,0 -3.9801,4.107 -4.9875,12.6124 -1.8301,15.4537 -7.9607,26.4254 -18.8745,33.7803 -10.4736,7.0582 -27.9294,7.4629 -38.6967,0.897 z m -7.238,-62.6419 c 15.0828,-10.6314 38.4738,-12.7558 52.077,-4.7296 10.5996,6.2538 11.0619,6.3127 11.0619,1.4088 0,-2.1035 -2.9374,-6.7619 -6.5277,-10.3522 l -6.5275,-6.5276 6.6656,-5.7335 c 3.666,-3.1535 8.8307,-5.7335 11.4771,-5.7335 2.6462,0 4.8114,-1.0924 4.8114,-2.4277 0,-3.3057 -10.887,-5.8019 -16.9341,-3.8827 -3.4527,1.0959 -6.0862,-0.1074 -8.8402,-4.0392 -4.849,-6.923 -4.8955,-14.1405 -0.1316,-20.43884 3.949,-5.22101 4.9058,-13.75666 1.5421,-13.75666 -1.15,0 -4.1067,2.22719 -6.5703,4.94944 -2.7269,3.01313 -7.6221,4.94944 -12.5127,4.94944 -6.558,0 -8.9723,-1.59091 -13.144,-8.66159 -5.7933,-9.81898 -11.7463,-11.83174 -9.1491,-3.09342 6.6676,22.43313 3.332,37.29143 -11.1554,49.69213 -11.6493,9.9714 -12.2306,12.6782 -2.296,10.6913 8.9693,-1.7939 9.2752,-0.1478 1.5154,8.1548 -5.5936,5.985 -10.8125,17.4586 -7.9413,17.4586 0.7325,0 6.3932,-3.5677 12.5794,-7.928 z"
       id="path3833" />
    <path
       style="fill:#afc6e9;fill-opacity:1;stroke:none"
       d="m 1188.7096,620.94035 c -5.8707,-3.1854 -9.6907,-10.57158 -9.6827,-18.72206 0.014,-14.20099 12.925,-24.6225 29.5503,-23.85237 10.6826,0.49486 11.9869,-0.27348 7.444,-4.38483 -6.2498,-5.65601 -3.2445,-23.05038 5.212,-30.16603 6.8473,-5.76159 9.2157,-5.44236 12.6045,1.69922 2.8149,5.93183 9.9594,12.16064 11.8173,10.30275 0.5257,-0.52571 0.049,-3.70609 -1.0613,-7.06757 -1.1094,-3.36157 -2.0171,-12.37879 -2.0171,-20.03836 0,-10.94096 0.8968,-16.14678 4.1831,-24.28291 2.3538,-5.82743 3.498,-10.77977 2.6163,-11.32468 -2.7124,-1.67634 -9.498,4.04802 -14.0931,11.88914 -4.3576,7.43551 -4.4932,7.51238 -9.0762,5.14241 -6.7947,-3.51361 -14.7955,-13.31541 -16.8202,-20.6065 -3.4963,-12.58994 -1.5515,-18.88855 6.6343,-21.48661 5.1005,-1.61885 4.0019,-4.20033 -1.7875,-4.20033 -16.0231,0 -27.2087,-7.44807 -29.496,-19.6402 -1.5492,-8.25857 0.7886,-13.97916 7.5848,-18.55908 7.0241,-4.73348 15.968,-4.94203 23.1868,-0.54043 6.8463,4.17441 10.2379,10.77107 11.6307,22.62182 0.6071,5.16582 1.6701,9.39242 2.3622,9.39242 0.6921,0 2.5149,-2.64821 4.0508,-5.88483 2.5497,-5.37311 3.407,-5.87837 9.8595,-5.81101 14.0732,0.14693 24.2166,5.87057 29.8037,16.81744 l 3.0432,5.96242 -7.0052,3.7478 c -6.3738,3.41001 -15.4794,13.40385 -13.77,15.11329 0.3875,0.38749 4.3312,-1.05106 8.7638,-3.19679 16.8657,-8.16457 37.6989,-4.13108 53.396,10.33792 4.249,3.9167 8.1327,6.71408 8.6303,6.21644 1.4206,-1.42053 -4.1036,-13.41156 -8.1997,-17.79882 -2.0366,-2.18124 -6.9187,-5.85756 -10.8492,-8.16949 l -7.1463,-4.20356 3.5962,-5.05038 c 4.3314,-6.08288 11.6972,-10.82156 20.7847,-13.37164 5.2962,-1.48619 8.7802,-1.36223 16.3935,0.5832 10.9015,2.78581 12.1219,1.55571 6.0787,-6.12692 -3.1941,-4.06057 -3.3758,-5.27489 -1.651,-11.03172 5.5384,-18.48545 29.9814,-20.74805 37.1511,-3.43907 3.428,8.27588 0.8292,16.69088 -7.6749,24.85177 -6.7222,6.45108 -7.8033,6.93374 -11.6274,5.19138 -5.8682,-2.67377 -6.5282,-1.2005 -3.4819,7.77223 3.1335,9.22945 3.3771,18.46186 0.6949,26.33141 -2.8874,8.47124 -10.4522,18.76225 -16.2853,22.15422 l -5.1381,2.98789 -3.7629,-5.08958 c -5.4563,-7.38007 -7.0353,-6.36417 -5.8094,3.73767 0.9733,8.01989 0.1585,13.56674 -3.2107,21.85787 -2.0031,4.92929 3.4548,3.48257 8.2182,-2.17838 4.0554,-4.81959 4.687,-5.01899 10.7381,-3.38955 7.652,2.06042 14.3014,8.54999 18.1151,17.6796 2.1774,5.21246 2.5257,9.32614 1.6137,19.05861 -1.1493,12.2647 -1.1211,12.38893 2.3906,10.50951 1.9546,-1.04605 4.4771,-3.38032 5.6055,-5.18726 3.2734,-5.24161 9.3353,-3.99537 16.7804,3.44974 6.5403,6.54025 6.7127,7.00568 5.9595,16.08865 -0.6342,7.64639 -1.725,10.30285 -5.9767,14.55457 -9.9366,9.93662 -30.5473,7.38205 -35.9404,-4.45452 -1.5424,-3.38516 -1.2212,-4.96625 1.899,-9.3483 2.0656,-2.9007 3.3664,-5.6631 2.8908,-6.13867 -0.4756,-0.47557 -4.3676,0.32461 -8.649,1.77815 -14.451,4.90624 -31.8493,2.76625 -41.1523,-5.06177 -8.0497,-6.77328 -8.0979,-9.92047 -0.2813,-18.4005 9.6439,-10.46233 8.9731,-13.80067 -1.6676,-8.29822 -11.5193,5.95686 -34.1598,6.61577 -47.7769,1.3904 -4.4936,-1.72434 -2.8473,4.79205 2.6412,10.45488 l 5.1803,5.34468 -3.5153,6.89069 c -3.7488,7.34814 -9.146,11.02168 -18.8748,12.84683 -5.3398,1.00173 -6.4063,0.58608 -9.3361,-3.639 -1.8193,-2.62346 -3.827,-6.20227 -4.4616,-7.95297 -1.7843,-4.9223 -2.9815,-2.193 -3.4511,7.86766 -0.2524,5.40648 -1.7916,11.516 -3.7435,14.85811 -6.5854,11.27561 -23.7283,16.52861 -34.6324,10.61212 l 0,0 z"
       id="path3835" />
    <g
       transform="scale(1.0023736,0.99763202)"
       style="font-size:489.58569336px;font-style:normal;font-variant:normal;font-weight:bold;font-stretch:normal;text-align:start;line-height:125%;writing-mode:lr-tb;text-anchor:start;fill:#ffaacc;fill-opacity:1;stroke:#c83737;stroke-width:22.91666603;stroke-miterlimit:4;stroke-opacity:1;font-family:Berlin Sans FB;-inkscape-font-specification:Berlin Sans FB Bold"
       id="text3860">
      <path
         d="m 829.89061,1461.1619 c -2.6e-4,36.6553 -11.79365,66.9356 -35.38021,90.8411 -23.58701,23.7462 -53.70798,35.6193 -90.36299,35.6193 -35.69905,0 -65.58096,-11.6341 -89.64581,-34.9021 -24.06495,-23.2681 -36.0974,-52.6719 -36.09739,-88.2115 -1e-5,-37.2925 11.55433,-68.1307 34.66305,-92.5145 23.74612,-24.7022 54.10614,-37.0534 91.08015,-37.0536 36.65501,2e-4 66.77598,11.8733 90.36299,35.6193 23.58656,23.7463 35.37995,53.947 35.38021,90.602 m -103.75009,0 c -1.5e-4,-6.2153 -2.15165,-11.4745 -6.4545,-15.7777 -4.14377,-4.4622 -9.3233,-6.6934 -15.53861,-6.6935 -6.21557,10e-5 -11.47478,2.1516 -15.77766,6.4545 -4.14374,4.3031 -6.21556,9.642 -6.21544,16.0167 -1.2e-4,6.2156 2.0717,11.5545 6.21544,16.0167 4.30288,4.3031 9.56209,6.4546 15.77766,6.4545 6.37468,10e-5 11.63389,-2.1514 15.77767,-6.4545 4.14347,-4.3029 6.21529,-9.6418 6.21544,-16.0167"
         style="fill:#ffaacc;stroke:#c83737;font-family:Berlin Sans FB;-inkscape-font-specification:Berlin Sans FB Bold"
         id="path3912" />
    </g>
    <path
       style="fill:#16502d;fill-opacity:0;stroke:none"
       d="m 555.81879,1307.8212 300,0 0,300 -300,0 0,-300 z"
       id="rect3594-4-9" />
    <path
       style="fill:#16502d;fill-opacity:0;stroke:none"
       d="m -673.16809,480.30722 300,0 0,300 -300,0 0,-300 z"
       id="rect3594-4-9-9"
       inkscape:export-filename="/media/localstore/Tic-Tac-Toe/resources/grid-box.png"
       inkscape:export-xdpi="90"
       inkscape:export-ydpi="90" />
  </g>
</svg>
