<svg xmlns="http://www.w3.org/2000/svg" viewBox="0 0 144.57 203.26"><defs><style>.a{opacity:0.1;}.b,.f{fill:#231f20;}.c{fill:#fff;}.d{fill:#caa384;}.e{fill:#f5b041;}.f,.h{opacity:0.2;}.g{fill:#434343;}.i{fill:#f7a2a2;}.j{fill:#b18e72;}</style></defs><title>cat</title><g class="a"><ellipse class="b" cx="75.14" cy="193.29" rx="58.16" ry="9.97"/></g><path class="c" d="M128.73,165.47s9.87,2.66,13.09-1.52-4.32-17.67,0-27.92,15.37-6.45,14.61,0-10.3,1.42-9.54,11,6.83,19.07-4.41,24.91c-10.91,5.66-19.64.52-19.64.52Z" transform="translate(-11.96 -7.25)"/><path class="d" d="M143.25,148.89c1.28-3,3.17-7.64.9-10.25a8.66,8.66,0,0,0-2.52-2c-3.53,9.42,2.37,21.3.73,26.24.54,1.38.89,2.21.89,2.21s3.54-3,2.2-7.27S142,151.88,143.25,148.89Z" transform="translate(-11.96 -7.25)"/><path class="e" d="M144.1,165.13c.24-1.16-.52-2.52-1.47-3.7a4.57,4.57,0,0,1-.8,2.52c-3.23,4.18-13.09,1.52-13.09,1.52l-.43.51v4.64a5.54,5.54,0,0,0,4.84,1c2.56-.85,2.28-2.56,4.84-2.14A5.79,5.79,0,0,0,144.1,165.13Z" transform="translate(-11.96 -7.25)"/><path class="e" d="M109.58,188.45s17.26,4.33,17.13,9.44-29.91-3.11-29.91-3.11Z" transform="translate(-11.96 -7.25)"/><path class="c" d="M122.18,193.1a2.2,2.2,0,0,1-.49,3c-2.27,1.63-15.26,1-15.3,1,8.72,1.95,20.24,3.92,20.32.74C126.75,196.16,124.79,194.52,122.18,193.1Z" transform="translate(-11.96 -7.25)"/><path class="f" d="M126.71,197.89a2.34,2.34,0,0,0-.06-.56c-3.79,1.34-9.65-.37-10.1-2.38-.36-1.59,1.42-2.86,2.36-3.4-2.1-.88-4.27-1.61-6-2.14a30.2,30.2,0,0,0-4.68-.3L96.8,194.79S126.58,203,126.71,197.89Z" transform="translate(-11.96 -7.25)"/><path class="e" d="M64.68,190.31S48,192,49,198.14s26.71-1.42,26.71-1.42Z" transform="translate(-11.96 -7.25)"/><path class="c" d="M69.51,198.33s-11.05.61-14.08-1.34a7.33,7.33,0,0,1-3-3.51c-2.22,1.15-3.76,2.67-3.43,4.65C49.7,202.31,61.84,200.14,69.51,198.33Z" transform="translate(-11.96 -7.25)"/><path class="f" d="M75.73,196.72l-11-6.41a53.53,53.53,0,0,0-5.73,1c1.56,1.31,4.13,3.57,4.45,4.62.43,1.37-10.13,3.07-14.42,1.66a3.22,3.22,0,0,0,0,.57C50,204.26,75.73,196.72,75.73,196.72Z" transform="translate(-11.96 -7.25)"/><path class="c" d="M124.33,130.7s13.68,28.3,0,51.93S65.68,203.69,56.57,184s-5.41-45.55-5.41-45.55Z" transform="translate(-11.96 -7.25)"/><path class="d" d="M112.79,131.93c-.24.61-.48,1.26-.72,2,0,0-6.26,15.24-2.14,22.74s10.1,2.2,16.08,10.1c1.22,1.61,2.37,2.2,3.44,2,3.79-19.56-5.13-38-5.13-38Z" transform="translate(-11.96 -7.25)"/><path class="e" d="M53.43,175.43c15.34-5,11.1-33.76,11.1-33.76a42.83,42.83,0,0,0-6.81-3.88l-6.56.7S48.44,157.6,53.43,175.43Z" transform="translate(-11.96 -7.25)"/><path class="c" d="M52.27,26.34s11.39-6.26,28.18-6.55,23.91,6.55,23.91,6.55S125.15,4.42,130.84,7.55s2.28,43.84,2.28,43.84l5.69,13.66s15.94,16.39,12,39.08S114.9,142.49,87.86,145s-60.63-6.55-72.31-27.33,8.82-47.82,8.82-47.82l4.27-15.66s-6.55-34.45-1.71-41S52.27,26.34,52.27,26.34Z" transform="translate(-11.96 -7.25)"/><path class="d" d="M26.94,13.25c-4.84,6.55,1.71,41,1.71,41L24.38,69.89a74.68,74.68,0,0,0-8.72,15.95c12.14,10.39,36,15,49,4.83C78,80.3,74.56,35.44,73,20.32a62.81,62.81,0,0,0-20.7,6S31.78,6.7,26.94,13.25Z" transform="translate(-11.96 -7.25)"/><circle class="g" cx="45.41" cy="68.12" r="7.31"/><circle class="c" cx="42.83" cy="65.54" r="2.77"/><g class="h"><path class="b" d="M143.08,110.7c-8.15,10.08-34.35,21-45.26,24.26S65.46,143.06,40,129.69c-17.11-9-24.76-21.82-27.94-29.26a29.89,29.89,0,0,0,3.46,17.29C27.22,138.5,60.81,147.61,87.86,145s58.93-18.22,62.91-40.91a42.17,42.17,0,0,0,.63-7.87A59.58,59.58,0,0,1,143.08,110.7Z" transform="translate(-11.96 -7.25)"/></g><path class="i" d="M76.57,118.57s2.09,16,10.63,15.28S93,116.3,93,116.3l-8-5.6S80.84,117.62,76.57,118.57Z" transform="translate(-11.96 -7.25)"/><path class="j" d="M116.06,143.06S101.69,130.56,92,129.69s-16.94,5.39-15.09,11.51,10.47-1,13.49-1.57,14.12,5.84,17.82,9.39,8.82,7.12,11.81,2.56S116.06,143.06,116.06,143.06Z" transform="translate(-11.96 -7.25)"/><path class="g" d="M82.69,99.19l1.61,11.7c.12.9,1.5.52,1.37-.38l-1.61-11.7c-.12-.9-1.5-.52-1.37.38Z" transform="translate(-11.96 -7.25)"/><path class="i" d="M81.68,92s7.6-1.23,7.41,1.9-3,6.07-5.5,6.26-8-3.23-7.88-5.12S80.09,92.18,81.68,92Z" transform="translate(-11.96 -7.25)"/><path class="e" d="M138.81,65.06l-5.69-13.66s3.42-40.71-2.28-43.84-26.47,18.79-26.47,18.79-7.12-6.83-23.91-6.55a70.28,70.28,0,0,0-7.48.53h0s8.27,59.54,23.39,67.51c12.35,6.51,37.1-3.29,49.14-13.24A47.25,47.25,0,0,0,138.81,65.06Z" transform="translate(-11.96 -7.25)"/><path class="g" d="M71.63,118.12c5.64,3.7,12.39-2.67,14-7.9l-1.19.31c3.5,3.8,10,10.08,14,3.27a.71.71,0,0,0-1.23-.72c-3.26,5.57-9-.61-11.72-3.56a.72.72,0,0,0-1.19.31c-1.36,4.31-7.48,10-12,7-.77-.5-1.48.73-.72,1.23Z" transform="translate(-11.96 -7.25)"/><path class="g" d="M116,67.19s-8.54-3.63-15.09.64c-8.44,5.51-6.18,10.46-4.59,11S96,74.42,101.52,70,116,67.19,116,67.19Z" transform="translate(-11.96 -7.25)"/><path class="i" d="M31.87,46.08a64,64,0,0,1,8-9.68,41.83,41.83,0,0,1,7.4-5.88S29.6,13.25,28.65,17.61,31.87,46.08,31.87,46.08Z" transform="translate(-11.96 -7.25)"/><path class="i" d="M110.82,30.23A32.09,32.09,0,0,1,121,36.45c4.55,4.27,5.93,7.83,5.93,7.83s4.36-23.86,1.8-28.28S110.82,30.23,110.82,30.23Z" transform="translate(-11.96 -7.25)"/><path class="g" d="M55.71,171.52a18.23,18.23,0,0,0-3.55-1.4A62.06,62.06,0,0,0,56.57,184c.11.24.25.46.37.69C58.7,181.44,60.3,173.81,55.71,171.52Z" transform="translate(-11.96 -7.25)"/><path class="g" d="M127.17,164.41c-3-2.56-7.28-1.28-7.7,3s.44,6.41-1.55,9c-1.67,2.15,1,8.38,5.62,7.51.27-.41.55-.82.8-1.25a44.48,44.48,0,0,0,5.22-14.35A8.75,8.75,0,0,0,127.17,164.41Z" transform="translate(-11.96 -7.25)"/><path class="c" d="M82.83,139.64A5.34,5.34,0,0,1,78.12,135a7.05,7.05,0,0,0-1.19,6.24c1.85,6.12,10.47-1,13.49-1.57,2.19-.41,8.6,2.83,13.39,6h0s-7.38-6.5-11.72-7.21S84.82,139.92,82.83,139.64Z" transform="translate(-11.96 -7.25)"/><g class="h"><path class="b" d="M128.14,141.69c0,.22-.05,27-11.59,39.8s-35.31,11.45-45.94,6.72c-6.27-2.79-14-12.83-19-21.45a65.29,65.29,0,0,0,5,17.29c9.11,19.64,54.09,22.2,67.76-1.42C132.67,168.22,130.84,152.1,128.14,141.69Z" transform="translate(-11.96 -7.25)"/></g><path class="j" d="M75.73,174.51s3.47,21.21,3.33,25.05-6.55,7.83-8.68,5.55.43-6.83,0-10.68-5-19.36-3.7-24.48S74.3,165.37,75.73,174.51Z" transform="translate(-11.96 -7.25)"/><path class="c" d="M77.82,195.42c0,1.89-.66,6.18-4.18,6.28a5.17,5.17,0,0,1-3.92-1.32c-.32,1.9-.42,3.6.64,4.74,2.13,2.28,8.54-1.71,8.68-5.55a103.67,103.67,0,0,0-1.23-11.36Z" transform="translate(-11.96 -7.25)"/><g class="h"><path class="c" d="M64.67,28.62S64,29,63,29.59c-.55.3-1.18.72-1.93,1.14s-1.57,1-2.45,1.55-1.84,1.22-2.84,1.91-2,1.48-3.08,2.23-2.1,1.66-3.17,2.53-2.14,1.78-3.11,2.78l-1.53,1.44c-.5.48-1,1-1.43,1.51L42,46.17l-1.27,1.53L39.5,49.2l-1.09,1.5a31.37,31.37,0,0,0-1.93,2.8l-1.55,2.45-1.05,2c-.6,1.1-1,1.72-1,1.72s.18-.69.55-1.9l.68-2.18c.32-.82.74-1.72,1.19-2.71.24-.49.44-1,.73-1.54L37,49.76l1-1.66c.36-.55.78-1.07,1.18-1.63l1.24-1.67c.45-.54.92-1.07,1.4-1.6s.95-1.09,1.46-1.6l1.56-1.52c1-1,2.2-1.9,3.29-2.83s2.28-1.68,3.4-2.46,2.24-1.45,3.34-2c.54-.3,1.07-.61,1.58-.87l1.52-.74c1-.49,1.9-.84,2.7-1.19s1.53-.59,2.14-.78C64,28.77,64.67,28.62,64.67,28.62Z" transform="translate(-11.96 -7.25)"/></g><g class="h"><path class="c" d="M84.9,132.9a6.26,6.26,0,0,1,.7-.33,13.35,13.35,0,0,1,2-.65,17.59,17.59,0,0,1,2.89-.47,15.81,15.81,0,0,1,1.66,0,13.94,13.94,0,0,1,1.71.14,14.81,14.81,0,0,1,1.69.33,13.15,13.15,0,0,1,1.59.49,10.66,10.66,0,0,1,1.42.62,9.91,9.91,0,0,1,1.21.67,8.42,8.42,0,0,1,1,.64l.7.56.59.5-.69-.36-.77-.43c-.29-.17-.66-.3-1-.49a9.44,9.44,0,0,0-1.23-.52c-.45-.14-.91-.36-1.41-.48s-1-.31-1.54-.4a14.35,14.35,0,0,0-1.61-.28,20.93,20.93,0,0,0-3.22-.21,23,23,0,0,0-2.83.19A20.28,20.28,0,0,0,84.9,132.9Z" transform="translate(-11.96 -7.25)"/></g><g class="h"><path class="c" d="M68.22,176.08s.35,1,.77,2.6c.2.79.45,1.7.67,2.69s.44,2.05.66,3.11.39,2.13.54,3.14.25,1.95.35,2.76.12,1.49.15,2,0,.75,0,.75l-.62-2.64-.62-2.7c-.22-1-.42-2.05-.64-3.11s-.39-2.13-.55-3.13-.28-1.94-.4-2.75C68.3,177.16,68.22,176.08,68.22,176.08Z" transform="translate(-11.96 -7.25)"/></g></svg>