<svg xmlns="http://www.w3.org/2000/svg" viewBox="0 0 134.08 208.79"><defs><style>.a{opacity:0.1;}.b{fill:#231f20;}.c{fill:#dd6b38;}.d{fill:#f6e042;}.e{fill:#434343;}.f{fill:#fff;}.g{fill:#efc41c;}.h{opacity:0.2;}</style></defs><title>duck</title><g class="a"><ellipse class="b" cx="67.04" cy="197.3" rx="67.04" ry="11.49"/></g><path class="c" d="M84.44,188.24s0,10.25-.66,12.8-5.74,8.61-6.4,7.63.33-3.53-1.07-4-4,2.87-4.92,1.72.9-3,0-4.18-3.2.49-3.45-.82,9.27-3.77,9.76-5.25,0-9.6,0-9.6Z" transform="translate(-26.95 -7.88)"/><path class="c" d="M115.77,188.24s0,10.25-.66,12.8-5.74,8.61-6.4,7.63.33-3.53-1.07-4-4,2.87-4.92,1.72.9-3,0-4.18-3.2.49-3.45-.82,9.27-3.77,9.76-5.25,0-9.6,0-9.6Z" transform="translate(-26.95 -7.88)"/><path class="d" d="M134.29,60.11s-3.94-22.64-25.59-29.86-45.94-1-55.78,13.12a54.22,54.22,0,0,0-9.84,28.22A40.61,40.61,0,0,0,29.95,98.17c-2.62,27.56,23.3,32.16,23.3,32.16s-16.08,17.39-7.87,38.06,31.17,26.91,54.14,24.94,42.33-13.12,51.19-31.5,9.52-37.73,3.94-38.72-6.56,7.22-15.42,6.23-10.5-5.91-10.5-5.91,21.22-6,22.64-24.94C152.48,83.44,147.74,68.64,134.29,60.11Z" transform="translate(-26.95 -7.88)"/><path class="c" d="M82.56,87.45s1.31-3.72,5-3.5,3.5,2.19,6,3.06,4.83-1.78,5.8-.22c1.42,2.3-2,5.25-1.09,6.78S101,95,100.93,97.19s-8,6.78-14.44,6.78-11.59-4.16-11.7-6.34,3.83-3.39,3.28-5.36-3.39-3.39-2.08-5S79.93,88.77,82.56,87.45Z" transform="translate(-26.95 -7.88)"/><circle class="e" cx="44.56" cy="67.4" r="6.16"/><circle class="f" cx="42.39" cy="65.23" r="2.33"/><circle class="e" cx="76.86" cy="67.4" r="6.16"/><circle class="f" cx="74.69" cy="65.23" r="2.33"/><g class="a"><path class="b" d="M67,129.84a191.2,191.2,0,0,0,23.15,0c10.83-.82,22.48-3,22.48-3a82,82,0,0,1-22.81,7.05A36.62,36.62,0,0,1,67,129.84Z" transform="translate(-26.95 -7.88)"/></g><g class="a"><path class="b" d="M128.71,123.44s21.22-6,22.64-24.94a51.13,51.13,0,0,0-1-15.11,50.3,50.3,0,0,1-3.23,17.41C142.27,113.27,128.71,123.44,128.71,123.44Z" transform="translate(-26.95 -7.88)"/></g><g class="a"><path class="b" d="M29.78,102.5c.33,23.72,23.47,27.83,23.47,27.83S37.27,120.49,29.78,102.5Z" transform="translate(-26.95 -7.88)"/></g><path class="g" d="M105.09,140.94s-8,14.33,4.88,21.88,30.56-4.59,33.51-9.19,1.15-6.4,1.15-6.4a5.77,5.77,0,0,0,1.48-5.41A3.51,3.51,0,0,0,143,139s-.05-4.21-2.87-3.45c-4,1.09-4.95,3-13.26,2.84C122.88,138.37,110.88,132,105.09,140.94Z" transform="translate(-26.95 -7.88)"/><path class="d" d="M78.84,31.4a74.38,74.38,0,0,1-1.17-15.59C78,7.94,81.3,6.3,83.27,9.25s2.46,10.39,2.46,10.39,3.56-9.07,8.26-9.07-1.53,11-1.53,11,4.1-5.31,8.53-1.92S89.3,30.58,89.3,30.58Z" transform="translate(-26.95 -7.88)"/><g class="a"><path class="b" d="M157.68,139.45c-4.61,10.83-16.29,28.88-45,40.42C82.36,192,58.35,181.9,46.52,171c6,12.36,17.76,19,31.41,21.48,0,.59,0,1.15,0,1.66,1.56,0,3.22.44,4,1.81,1.64,3-1.09,6.78-2.3,8.86s-2.21,3.86-2.21,3.86c.66,1,5.74-5.09,6.4-7.63a50.1,50.1,0,0,0,.58-7.68,87.26,87.26,0,0,0,15.14,0,80.4,80.4,0,0,0,9.75-1.46c0,.8,0,1.57,0,2.25,1.3-.55,3-1.07,3.82-.45,1.42,1.08.77,4-.11,6.66a67.81,67.81,0,0,1-4.24,8.34c.66,1,5.74-5.09,6.4-7.63.48-1.84.61-7.72.64-10.83,15.64-4.81,28.26-14.55,34.94-28.38A78.8,78.8,0,0,0,157.68,139.45Z" transform="translate(-26.95 -7.88)"/></g><g class="a"><path class="b" d="M99.4,86.8a4.5,4.5,0,0,1-.55,2c-.55,1-2,2.35-2,4.16s1.7,2.52,1.64,3.83-3.61,4-8.53,5.2-13.58-1.78-13.58-1.78a16.81,16.81,0,0,0,11.78,6.43c10.79.77,14.66-5.8,14.57-8.09s-2.62-3.61-2.3-5.58S101.41,87.73,99.4,86.8Z" transform="translate(-26.95 -7.88)"/></g><g class="a"><path class="b" d="M138.56,154.45c-6.81,4.51-17.47,6.4-23.46,5.41-3.95-.65-8.87-3.25-11.79-4.95a14,14,0,0,0,6.66,7.9c12.84,7.55,30.56-4.59,33.51-9.19,1.54-2.39,1.78-4,1.67-5A25.26,25.26,0,0,1,138.56,154.45Z" transform="translate(-26.95 -7.88)"/></g><g class="h"><path class="f" d="M77.61,36.16s-.56.3-1.51.87-2.3,1.37-3.88,2.37c-.78.51-1.63,1.06-2.51,1.67S67.94,42.35,67,43s-1.82,1.48-2.79,2.2-1.86,1.57-2.71,2.44a34.47,34.47,0,0,0-2.56,2.59q-.59.68-1.2,1.32c-.39.44-.72.92-1.08,1.36s-.69.9-1,1.33-.61.9-.9,1.34a25.38,25.38,0,0,0-1.58,2.52l-1.25,2.22c-.29.7-.58,1.3-.81,1.8-.47,1-.76,1.58-.76,1.58s.08-.63.26-1.73c.1-.55.21-1.23.37-2s.5-1.59.82-2.5A16.82,16.82,0,0,1,53,54.61c.25-.5.5-1,.78-1.53s.65-1,1-1.5.67-1,1-1.54.79-1,1.21-1.47a35.7,35.7,0,0,1,2.65-2.82c.93-.91,2-1.68,2.94-2.52s2-1.48,3.07-2.12a33.59,33.59,0,0,1,3-1.72c1-.53,1.93-.94,2.81-1.32A28.09,28.09,0,0,1,77.61,36.16Z" transform="translate(-26.95 -7.88)"/></g><g class="h"><path class="f" d="M79.41,94.32s-.2.43-.52,1l-.51.89a4.67,4.67,0,0,0-.41.93,1.6,1.6,0,0,0-.09.41c0,.12,0,.25,0,.36a1.73,1.73,0,0,0,.39.73,5.5,5.5,0,0,0,.49.56l.21.24h-.32a2.11,2.11,0,0,1-.83-.19,1.47,1.47,0,0,1-.52-.31,1.53,1.53,0,0,1-.48-.56,2,2,0,0,1-.14-1.62,3.69,3.69,0,0,1,1.64-2A3.21,3.21,0,0,1,79.41,94.32Z" transform="translate(-26.95 -7.88)"/></g><g class="h"><path class="f" d="M62.76,81.43s-.4-.11-1.1-.27-1.68-.38-2.85-.59c-.58-.11-1.22-.2-1.88-.3s-1.37-.12-2.08-.24-1.46-.1-2.21-.08a21,21,0,0,0-2.26.07,18.19,18.19,0,0,0-2.24.24,20.77,20.77,0,0,0-2.16.4c-.71.12-1.35.38-2,.55a16.16,16.16,0,0,0-1.78.62c-.54.23-1.09.37-1.52.59s-.83.38-1.16.53c-.66.28-1.06.43-1.06.43s.26-.32.75-.86c.25-.27.55-.6.92-1a10.67,10.67,0,0,1,1.34-1.07,9.26,9.26,0,0,1,1.73-1.1,12.18,12.18,0,0,1,2.09-1,16.94,16.94,0,0,1,4.91-1,16,16,0,0,1,2.55,0,21.59,21.59,0,0,1,2.43.34,18.07,18.07,0,0,1,2.2.62,13.59,13.59,0,0,1,1.88.77,14.87,14.87,0,0,1,1.51.81c.43.27.8.51,1.09.74A7.68,7.68,0,0,1,62.76,81.43Z" transform="translate(-26.95 -7.88)"/></g><g class="h"><path class="f" d="M135.44,140.83a10.72,10.72,0,0,1-3,1.4,14.06,14.06,0,0,1-1.52.42,15.82,15.82,0,0,1-1.74.3,19.13,19.13,0,0,1-3.83.1c-.65,0-1.3-.14-1.93-.23s-1.24-.28-1.84-.42a14.22,14.22,0,0,1-1.67-.55,10.08,10.08,0,0,1-1.44-.63,11.9,11.9,0,0,1-2-1.21c-.46-.34-.71-.55-.71-.55s.34,0,.9.06c.28,0,.62.06,1,.12s.82.07,1.28.14l3.12.36,1.74.16c.59,0,1.19.13,1.79.14,1.2.09,2.4.16,3.54.21l3.14.1Z" transform="translate(-26.95 -7.88)"/></g><g class="h"><path class="f" d="M55.54,137.88s-.95,1.58-2.22,3.9l-1,1.89c-.35.66-.67,1.39-1,2.12s-.62,1.52-1,2.29-.61,1.59-.86,2.4-.54,1.62-.69,2.44q-.13.61-.29,1.21c-.1.4-.13.8-.2,1.19s-.11.78-.19,1.16-.06.76-.09,1.12a16.88,16.88,0,0,0-.09,2.08c0,.65,0,1.26,0,1.8s.11,1,.14,1.39c.06.79.08,1.26.08,1.26s-.22-.39-.58-1.11c-.18-.36-.4-.8-.62-1.33s-.35-1.15-.53-1.83a10.34,10.34,0,0,1-.37-2.24c0-.4-.09-.82-.11-1.24s0-.86,0-1.3a15.17,15.17,0,0,1,.3-2.71,20.17,20.17,0,0,1,.69-2.72c.29-.89.66-1.75,1-2.6s.81-1.63,1.28-2.36a19.22,19.22,0,0,1,1.4-2.07,19.77,19.77,0,0,1,1.42-1.72A17.39,17.39,0,0,1,55.54,137.88Z" transform="translate(-26.95 -7.88)"/></g></svg>