<svg xmlns="http://www.w3.org/2000/svg" viewBox="0 0 132.23 225.88"><defs><style>.a,.e{opacity:0.1;}.b,.e{fill:#231f20;}.c{fill:#f6e042;}.d{fill:#e64d3c;}.f{fill:#434343;}.g{fill:#efad71;}.h{fill:#fff;}.i{opacity:0.2;}.j{opacity:0.5;}</style></defs><title>rooster</title><g class="a"><ellipse class="b" cx="61.64" cy="215.32" rx="61.64" ry="10.56"/></g><path class="c" d="M102.07,197.74s1,8,.34,9.6-5.54,4.46-5.14,5.34,5.61-2.1,5.75-1-4.26,6.69-3.72,7.51,5.58-6.81,6.46-5.79-1.12,5.88.1,6.62,3.11-8.4,3-9.82-.54-5.48-.61-7,.14-6.69.14-6.69Z" transform="translate(-27.38 -1.79)"/><path class="c" d="M81.87,198.33s-.09,7.21,0,8,.36,5.14-.72,7-6.94,7.12-7.57,6.58,3.07-5.86,2.43-6.85-6.4,4.15-7.39,2.61,5-4.15,5-5.32-5.77.49-5.77-1.24,8.84-2.09,9.29-3.63,0-7.21,0-7.21Z" transform="translate(-27.38 -1.79)"/><g class="a"><path class="b" d="M77.09,198.33s.13,1.63.18,3.37a7.48,7.48,0,0,1,3.36.77c.74.5.78,1.26,1.2,2,0-2.4,0-6.11,0-6.11Z" transform="translate(-27.38 -1.79)"/></g><g class="a"><path class="b" d="M108.29,203.22c-.07-1.49.14-6.69.14-6.69l-6.36,1.22s.18,1.45.34,3.23a7.59,7.59,0,0,1,3.24.49,5.1,5.1,0,0,1,2.76,3.39C108.35,204.19,108.31,203.61,108.29,203.22Z" transform="translate(-27.38 -1.79)"/></g><path class="d" d="M66.37,41.28a84.17,84.17,0,0,1-2.44-20.73c0-12.08,3.43-18.75,9.74-18.75s6.4,22.9,6.4,22.9,5.14-14.06,13.16-13.34S96,33.7,96,33.7s5.59-7,11.18-3.07-3.79,24.88-3.79,24.88Z" transform="translate(-27.38 -1.79)"/><path class="e" d="M66.73,41.41l36.69,14.11a95,95,0,0,0,3.71-10,7.91,7.91,0,0,1-5.67,1c-2.37-.41-7.57-6.9-18.93-8.18C73.22,37.32,68.23,40.3,66.73,41.41Z" transform="translate(-27.38 -1.79)"/><path class="f" d="M120.05,149.33s5.81-13,16.36-18,22.58.54,23.12,4.19-5.81,2.3-5.81,2.3,6.42,6.9,5.85,9.87-7.61-2-7.61-2,4.73,7,3.65,9.2-6.22-3.65-6.22-3.65,4.6,7.84,1.76,9.74-4.73-8.25-11.9-6.9-7.71,9.2-7.71,9.2Z" transform="translate(-27.38 -1.79)"/><g class="a"><path class="b" d="M139.26,154.06a6.18,6.18,0,0,1,3.89.46,9.51,9.51,0,0,0-4.11-1.32c-2.88-.09-4.33,1.08-5.45,1s-1.8-.54-5.32-3.7a15,15,0,0,0-7-3.45c-.27.49-.5.92-.68,1.27v1.38l10.68,12.94.44-.22C132,160.34,133.54,155.14,139.26,154.06Z" transform="translate(-27.38 -1.79)"/></g><g class="a"><path class="b" d="M144.8,155.6l.06,0h0Z" transform="translate(-27.38 -1.79)"/></g><path class="g" d="M54.2,160.46s-8.52,9.56-8.38,17.13,7.57,9.88,7.57,9.88Z" transform="translate(-27.38 -1.79)"/><path class="d" d="M58.79,154.06s-16.23,18.12-7.57,33.27,42.19,14.88,57.34,10.41,25.42-15.15,26.05-23.4c.57-7.48-2.89-19.11-8.65-23.44s-10.28-5.23-10.28-5.23Z" transform="translate(-27.38 -1.79)"/><path class="g" d="M83.95,40.08s-23.26-7-32.46,18.59S45,92,36.61,102.62s-13.52,24.94-2.7,39.14S60.15,154.33,62,157s5.41,6.7,8.11,3.35,3-1.76,6.58,1.34c4.33,3.79,4.1-3.51,7.48-4.15,4.33-.81,3.25,6.14,7,4.28s1.17-5.82,4.64-6.68c3.08-.77,4.72,3.48,7.17,2.94,3.7-.81.41-5.86,5-6.9,2.16-.49,5,2,6.4,1.22,4.17-2.35,1.17-5.41,4.42-7.57s13.25-9.2,13.52-21.1-10.82-10.55-14.88-31.1S108.11,46.33,83.95,40.08Z" transform="translate(-27.38 -1.79)"/><circle class="f" cx="35.38" cy="90.53" r="6.94"/><circle class="h" cx="32.94" cy="88.08" r="2.63"/><circle class="f" cx="65.85" cy="90.53" r="6.94"/><circle class="h" cx="63.41" cy="88.08" r="2.63"/><path class="d" d="M72.72,108.76s.14,7.84-1.76,12.85-10.14,13.79-2.84,18.66,9.06-9.2,9.06-9.2,0,12.17,6.9,11.9,5.45-6.36,4.08-10.82-4.21-7.71-4.62-13.66-.68-9.74-.68-9.74Z" transform="translate(-27.38 -1.79)"/><path class="g" d="M104.36,161.65a14.51,14.51,0,0,0-7.53,18.17,13.61,13.61,0,0,0,4.61,6.07c9.2,6.85,24.15-10.3,25.89-16.28,1.85-6.35-2.09-4.1-2.09-4.1s3.15-1.8,2.38-4.51-4,0-4,0,2.34-4.51.9-5.59C123.32,154.51,116,156.11,104.36,161.65Z" transform="translate(-27.38 -1.79)"/><g class="a"><path class="b" d="M118.84,144.87c3.25-2.16,13.25-9.2,13.52-21.1.15-6.54-3.14-9.08-6.8-13.45a23.77,23.77,0,0,1,.94,13.18c-2.34,9.38-10.28,15.16-11.54,19.48s-2.68,5.81-5.18,5.13-5.68,1.49-6.15,3.79a3.17,3.17,0,0,1-4.73,2c-1.83-.95-5.14-1.28-6,.95s-2.13,3-3.57,2-4.64-2.32-7.07-.34-2.43,3.61-4.51,3.34-2.25-4.06-5.68-2.7-4.67,3.52-6.89.72a13,13,0,0,0-8.35-4.6c-1.78-.27-8.2-1.9-14.45-3.66,6.47,4.15,13,5.13,16.7,6.08l-.35-.09c1.09.57,2.93,1.68,3.53,2.94.88,1.83,1.89,6.56,5.61,5.81s3.72-3.38,5-3.52,4.28,3.72,7.21,3.18,3.2-4,4.82-4.6,2.5,3.92,5.48,3.85,5.22-1.64,5.52-3.46.84-3.57,1.65-3.57,5.41,4.73,8.18,2.23.41-5.27,2.7-6,4.26,2.77,7.71,1.22c2.51-1.13,3.69-4.54,4.15-6.32a27.32,27.32,0,0,0-2.74-1.16,3.78,3.78,0,0,0-.3.75A3.59,3.59,0,0,1,118.84,144.87Zm-59.06,11-.38-.11Zm1.95.85-.09-.07Zm-.53-.33-.14-.06Zm-.61-.25-.18-.07ZM115.06,152a7,7,0,0,1-.64.41A7,7,0,0,0,115.06,152Zm.17-.13.36-.3Zm.51-.44a4.19,4.19,0,0,0,.28-.32C115.94,151.24,115.85,151.35,115.74,151.45Zm.38-.44a3.82,3.82,0,0,0,.51-.92A3.83,3.83,0,0,1,116.12,151Zm.68-1.47c.21-.86.22-1.73.45-2.55C117,147.82,117,148.69,116.8,149.55Zm-.15.48c.05-.14.09-.28.13-.42Q116.73,149.82,116.65,150Z" transform="translate(-27.38 -1.79)"/></g><g class="a"><path class="b" d="M108.56,197.74c15.15-4.46,25.42-15.15,26.05-23.4a30.74,30.74,0,0,0-.78-8.7,28.89,28.89,0,0,1-7.56,16.55c-8,8.38-21.1,11.63-37.59,13.52-10.33,1.19-23.84-1.07-32.5-2.93C68.88,202.31,95.52,201.58,108.56,197.74Z" transform="translate(-27.38 -1.79)"/></g><g class="a"><path class="b" d="M100.17,184.81a10.32,10.32,0,0,0,9.47,3.69c6.22-.81,12.17-5.5,15.87-10.73s2.06-12.13,2.06-12.13-.52,3.39-5.12,8.8S107.37,187.07,100.17,184.81Z" transform="translate(-27.38 -1.79)"/></g><g class="a"><path class="b" d="M72,137.37a6.78,6.78,0,0,1-6.71-.76,6.2,6.2,0,0,0,2.78,3.66c7.3,4.87,9.06-9.2,9.06-9.2S75.9,135.55,72,137.37Z" transform="translate(-27.38 -1.79)"/></g><g class="a"><path class="b" d="M83.54,118.5c-.41-6-.68-9.74-.68-9.74H72.72s0,1-.05,2.57h0s4.11,7.71,5.05,7.57,2.7-2.16,3.25-1.08,1.22,3.52,2.43,6.56,3.31,7.91,2.64,11.7-2.84,4.12-4.39,3.79c-1.09-.24-2.83-2.21-3.77-3.36.8,3.21,2.51,6.62,6.2,6.47,6.9-.27,5.45-6.36,4.08-10.82S83.95,124.45,83.54,118.5Z" transform="translate(-27.38 -1.79)"/></g><g class="a"><path class="b" d="M77.18,131.07v0Z" transform="translate(-27.38 -1.79)"/></g><path class="c" d="M77.73,116.56s5.68-6,5.68-9.47-3.79-4.33-5.68-4.33c-3.43,0-5.68,2.79-5.68,4.78S77.73,116.56,77.73,116.56Z" transform="translate(-27.38 -1.79)"/><g class="a"><path class="b" d="M80.07,103.12s1.44,1.18.83,4-3.18,9.49-3.18,9.49,5.68-6,5.68-9.47C83.41,104.76,81.74,103.62,80.07,103.12Z" transform="translate(-27.38 -1.79)"/></g><g class="i"><path class="h" d="M72.72,4a6.61,6.61,0,0,0-.68.66c-.2.21-.42.5-.67.81s-.5.69-.74,1.12-.48.89-.74,1.38-.46,1-.67,1.61a18.1,18.1,0,0,0-.56,1.78,18.68,18.68,0,0,0-.46,1.88c-.17.63-.25,1.28-.36,1.92s-.22,1.27-.28,1.89-.19,1.21-.22,1.79-.11,1.12-.18,1.62-.09,1-.14,1.39-.09.78-.13,1.08c-.08.6-.15,1-.15,1s-.11-.33-.28-.92c-.08-.29-.18-.65-.27-1.07a10.74,10.74,0,0,1-.27-1.4,21.08,21.08,0,0,1-.25-3.58,14.19,14.19,0,0,1,.1-2,15.44,15.44,0,0,1,.33-2.1,13.88,13.88,0,0,1,.58-2.06,13.25,13.25,0,0,1,.82-1.92,11.93,11.93,0,0,1,1-1.67,9.58,9.58,0,0,1,1.16-1.32,7.6,7.6,0,0,1,1.14-.94,6.41,6.41,0,0,1,1-.56A4,4,0,0,1,72.72,4Z" transform="translate(-27.38 -1.79)"/></g><g class="i"><path class="h" d="M94.09,13.89s-.24.09-.61.26l-.65.34c-.25.12-.51.31-.8.46a19.56,19.56,0,0,0-1.79,1.34c-.3.27-.61.55-.91.84s-.61.59-.88.94-.58.64-.84,1-.56.65-.79,1-.51.65-.74,1-.45.62-.66.9c-.43.55-.75,1.05-1,1.38s-.44.52-.44.52,0-.25,0-.68a9.31,9.31,0,0,1,.3-1.75A10.74,10.74,0,0,1,85.18,19a8.58,8.58,0,0,1,.73-1.24,9.14,9.14,0,0,1,.92-1.18,10,10,0,0,1,1.09-1,10.1,10.1,0,0,1,1.21-.85,8.24,8.24,0,0,1,1.25-.59,7.16,7.16,0,0,1,1.19-.34,5.9,5.9,0,0,1,1.83-.07A3.24,3.24,0,0,1,94.09,13.89Z" transform="translate(-27.38 -1.79)"/></g><g class="i"><path class="h" d="M107.13,33.16a14.12,14.12,0,0,0-1.5-.24c-.2,0-.43,0-.64,0s-.44,0-.67,0-.45,0-.68.07l-.68.14c-.23.08-.46.1-.69.2s-.47.13-.69.25-.46.17-.67.27-.43.19-.63.27c-.41.16-.75.34-1,.42l-.44.14a4,4,0,0,1,.13-.44,4.28,4.28,0,0,1,.52-1.07c.14-.2.3-.42.48-.64a6.71,6.71,0,0,1,.67-.61,4.36,4.36,0,0,1,.84-.53,5.1,5.1,0,0,1,1-.37,4.48,4.48,0,0,1,2.1,0,3.72,3.72,0,0,1,1.6.8,3.22,3.22,0,0,1,.79.93A1.92,1.92,0,0,1,107.13,33.16Z" transform="translate(-27.38 -1.79)"/></g><g class="i"><path class="h" d="M72.67,42.54s-.15.06-.42.19-.66.35-1.15.61S70,44,69.39,44.42s-1.32,1-2.08,1.53S65.8,47.21,65,48s-1.52,1.6-2.31,2.47-1.47,1.88-2.21,2.86l-1,1.55-.52.78-.45.82a34.16,34.16,0,0,0-1.77,3.3c-.49,1.14-1.13,2.19-1.5,3.32s-.89,2.16-1.26,3.19-.66,2-1,2.93-.58,1.75-.78,2.5l-.57,2c-.33,1.08-.54,1.7-.54,1.7s0-.65.12-1.78l.18-2,.13-1.26c.06-.44.17-.9.26-1.38.19-1,.39-2,.64-3.1s.65-2.22,1-3.39a30.53,30.53,0,0,1,1.39-3.53,35.22,35.22,0,0,1,1.79-3.5l.49-.86.56-.82,1.12-1.62c.37-.54.82-1,1.23-1.5a18.85,18.85,0,0,1,1.26-1.41A24.9,24.9,0,0,1,64,46.78a24.21,24.21,0,0,1,2.61-1.84A22.41,22.41,0,0,1,69,43.7,17.49,17.49,0,0,1,70.93,43,11.82,11.82,0,0,1,72.67,42.54Z" transform="translate(-27.38 -1.79)"/></g><g class="j"><path class="h" d="M73.67,106.46a4.76,4.76,0,0,1,1.05.8,7.1,7.1,0,0,1,1.5,2.13,7,7,0,0,1,.67,2.52,4.73,4.73,0,0,1-.07,1.32,4.73,4.73,0,0,1-1.06-.79,7,7,0,0,1-1.5-2.13,7.1,7.1,0,0,1-.66-2.52A4.76,4.76,0,0,1,73.67,106.46Z" transform="translate(-27.38 -1.79)"/></g><g class="i"><path class="h" d="M47.7,103.12s-.39.16-1,.48-1.55.77-2.59,1.36c-.52.3-1.07.63-1.64,1s-1.13.8-1.75,1.2-1.17.92-1.73,1.43a18.51,18.51,0,0,0-1.63,1.61c-.25.29-.54.55-.77.85l-.69.91a17.07,17.07,0,0,0-1.23,1.85l-.29.46-.23.48-.46.92a13.68,13.68,0,0,0-.74,1.75c-.19.56-.46,1.06-.56,1.54s-.25.89-.35,1.23c-.21.69-.35,1.09-.35,1.09s0-.41-.07-1.14c0-.36,0-.81,0-1.32a10,10,0,0,1,.18-1.71,9.16,9.16,0,0,1,.43-2,11.91,11.91,0,0,1,.8-2.17,13.74,13.74,0,0,1,1.21-2.17l.74-1.05c.26-.34.57-.65.85-1A15.37,15.37,0,0,1,37.62,107a20.7,20.7,0,0,1,2-1.41,17.49,17.49,0,0,1,2-1,14.27,14.27,0,0,1,1.91-.71,16,16,0,0,1,1.66-.43c.5-.09.94-.17,1.3-.2A8.1,8.1,0,0,1,47.7,103.12Z" transform="translate(-27.38 -1.79)"/></g><g class="i"><path class="h" d="M73.67,118.18A5.78,5.78,0,0,1,74,120a9.64,9.64,0,0,1-.6,3.79,8.89,8.89,0,0,1-2,3.28,5.3,5.3,0,0,1-1,.82,4.93,4.93,0,0,1-.44.25s0-.19.09-.5.17-.73.31-1.21l.21-.77.26-.84c.19-.57.39-1.18.61-1.78a29.25,29.25,0,0,1,1.42-3.3A13.6,13.6,0,0,1,73.67,118.18Z" transform="translate(-27.38 -1.79)"/></g><g class="i"><path class="h" d="M58.12,161.23l-1.28,3.37-.58,1.61-.61,1.8c-.23.61-.37,1.28-.59,1.92s-.38,1.32-.53,2-.34,1.34-.44,2-.28,1.32-.33,2-.19,1.26-.2,1.86-.12,1.16-.1,1.68,0,1,0,1.45L53.5,182c0,.63,0,1,0,1s-.17-.32-.44-.91c-.13-.3-.3-.66-.46-1.08s-.26-.92-.39-1.47a10.22,10.22,0,0,1-.28-1.78,11.31,11.31,0,0,1-.08-2A15.24,15.24,0,0,1,52,173.6a20,20,0,0,1,.41-2.19c.18-.72.41-1.43.63-2.13s.52-1.35.82-2A21.76,21.76,0,0,1,55.74,164,15,15,0,0,1,58.12,161.23Z" transform="translate(-27.38 -1.79)"/></g><g class="i"><path class="h" d="M148,133.24s-1.34.19-3.22.61c-.47.09-1,.25-1.5.37l-1.64.48c-.56.18-1.14.38-1.71.6s-1.15.45-1.72.7-1.12.55-1.68.79-1.07.58-1.6.86-1,.62-1.46.89-.88.6-1.29.86-.79.5-1.1.75-.6.45-.84.62c-.48.34-.77.52-.77.52s.15-.3.45-.81c.15-.25.33-.57.56-.91a8.88,8.88,0,0,1,.85-1.09,9.72,9.72,0,0,1,1.12-1.21,15.66,15.66,0,0,1,1.4-1.21c.53-.36,1-.79,1.64-1.11a17.18,17.18,0,0,1,1.83-.93,15.22,15.22,0,0,1,1.93-.71,15.43,15.43,0,0,1,1.93-.46,15.26,15.26,0,0,1,1.83-.22,13.49,13.49,0,0,1,1.65,0A10.27,10.27,0,0,1,148,133.24Z" transform="translate(-27.38 -1.79)"/></g><g class="i"><path class="h" d="M110.86,161.23l-2.41,1.89c-.69.58-1.5,1.22-2.29,2-.42.35-.79.77-1.2,1.16s-.76.84-1.15,1.25-.72.87-1,1.34a12.32,12.32,0,0,0-.85,1.37,10.14,10.14,0,0,0-.66,1.37,9.54,9.54,0,0,0-.47,1.3c-.1.42-.23.81-.33,1.16s-.11.67-.15.94c-.1.53-.17.85-.17.85s-.11-.29-.26-.82c-.07-.27-.17-.6-.25-1s-.06-.83-.07-1.31a6.1,6.1,0,0,1,.15-1.57,6.9,6.9,0,0,1,.47-1.71,9.54,9.54,0,0,1,.82-1.72,15.34,15.34,0,0,1,1.12-1.6,18.16,18.16,0,0,1,1.36-1.38A13.87,13.87,0,0,1,105,163.6a11.83,11.83,0,0,1,1.47-.89,13.85,13.85,0,0,1,1.38-.65A11.23,11.23,0,0,1,110.86,161.23Z" transform="translate(-27.38 -1.79)"/></g></svg>